Coordinates
version=1
nRows=20
nColumns=23
inDegrees=yes

Units are S.I. units (second, meters, Newtons, ...)
Angles are in degrees.

endheader
time	pelvis_tilt	pelvis_list	pelvis_rotation	pelvis_tx	pelvis_ty	pelvis_tz	hip_flexion_r	hip_adduction_r	hip_rotation_r	knee_angle_r	knee_angle_r_beta	ankle_angle_r	subtalar_angle_r	mtp_angle_r	hip_flexion_l	hip_adduction_l	hip_rotation_l	knee_angle_l	knee_angle_l_beta	ankle_angle_l	subtalar_angle_l	mtp_angle_l
    120.00000000	    -22.28791347	      5.64988425	     11.32556024	      0.03331247	      1.37418450	      0.21563474	     43.75951022	    -14.50487421	     -0.60400399	     42.85161851	      0.74790183	     -6.66013090	      0.00000000	      0.00000000	     84.68776801	      4.53820673	     -2.83280979	     99.52320125	      1.73700754	     14.94531176	      0.00000000	      0.00000000
    120.00888900	    -22.19366499	      5.50545465	     11.09323012	      0.03294018	      1.37443432	      0.21558913	     44.44983470	    -14.25942486	     -0.24703000	     45.96564237	      0.80225180	     -5.46639136	      0.00000000	      0.00000000	     84.12304149	      4.52837439	     -2.67281873	     97.26295868	      1.69755887	     15.34524466	      0.00000000	      0.00000000
    120.01777800	    -22.06374142	      5.36202953	     10.78372506	      0.03260532	      1.37470852	      0.21565210	     45.25031394	    -13.95219469	      0.21183612	     49.24015698	      0.85940286	     -4.41655614	      0.00000000	      0.00000000	     83.32486513	      4.46014639	     -2.49114172	     94.76680618	      1.65399279	     15.66618930	      0.00000000	      0.00000000
    120.02666700	    -21.88565207	      5.16345833	     10.41135299	      0.03230819	      1.37500101	      0.21572497	     46.12104773	    -13.55842910	      0.67511971	     52.61983884	      0.91838944	     -3.50036267	      0.00000000	      0.00000000	     82.30542486	      4.33692379	     -2.22388238	     92.07074250	      1.60693760	     15.92208273	      0.00000000	      0.00000000
    120.03555600	    -21.68466675	      4.96883205	      9.97859805	      0.03207671	      1.37528760	      0.21583137	     47.08062104	    -13.12711778	      1.19020702	     56.07298960	      0.97865829	     -2.80712633	      0.00000000	      0.00000000	     81.07760571	      4.17091248	     -1.93263878	     89.17604961	      1.55641568	     16.10468655	      0.00000000	      0.00000000
    120.04444400	    -21.44084883	      4.67353968	      9.47368727	      0.03197201	      1.37562017	      0.21601255	     48.07042553	    -12.56813407	      1.62909627	     59.52511182	      1.03890919	     -2.27050836	      0.00000000	      0.00000000	     79.65678822	      3.88909993	     -1.57114806	     86.10357856	      1.50279094	     16.18037702	      0.00000000	      0.00000000
    120.05333300	    -21.15404735	      4.31662237	      8.90075889	      0.03187330	      1.37589712	      0.21622270	     49.09646433	    -11.90982061	      2.06049819	     62.98643850	      1.09932074	     -1.86139253	      0.00000000	      0.00000000	     78.05955946	      3.51498370	     -1.15514390	     82.89399428	      1.44677313	     16.09802885	      0.00000000	      0.00000000
    120.06222200	    -20.85184187	      3.92351842	      8.27795126	      0.03186671	      1.37623269	      0.21650798	     50.15749719	    -11.18046385	      2.47939272	     66.38540931	      1.15864397	     -1.65054851	      0.00000000	      0.00000000	     76.29987020	      3.05330935	     -0.72981517	     79.54066056	      1.38824642	     15.90446530	      0.00000000	      0.00000000
    120.07111100	    -20.53805800	      3.43263339	      7.58507226	      0.03189075	      1.37654079	      0.21686672	     51.25601515	    -10.32551465	      2.83693449	     69.71943752	      1.21683374	     -1.54616350	      0.00000000	      0.00000000	     74.42819002	      2.45057902	     -0.28269384	     76.09384342	      1.32808811	     15.51049853	      0.00000000	      0.00000000
    120.08000000	    -20.23378728	      2.88739182	      6.85420749	      0.03195494	      1.37685542	      0.21728359	     52.40033942	     -9.40096081	      3.14817702	     72.96722834	      1.27351838	     -1.55130029	      0.00000000	      0.00000000	     72.45971333	      1.74326295	      0.13367989	     72.55951010	      1.26640235	     14.97248559	      0.00000000	      0.00000000
    120.08888900	    -19.95061139	      2.28632371	      6.07111933	      0.03199984	      1.37712816	      0.21778883	     53.60765936	     -8.40076129	      3.40360472	     76.11726098	      1.32849682	     -1.61923204	      0.00000000	      0.00000000	     70.43444698	      0.90995861	      0.48541183	     68.97231503	      1.20379399	     14.22502948	      0.00000000	      0.00000000
    120.09777800	    -19.69096115	      1.78903193	      5.29389566	      0.03212602	      1.37746470	      0.21832320	     54.87462362	     -7.48849461	      3.69640273	     79.20922239	      1.38246173	     -1.73913336	      0.00000000	      0.00000000	     68.30820230	      0.08330446	      0.64304178	     65.30525740	      1.13979176	     13.45258793	      0.00000000	      0.00000000
    120.10666700	    -19.50767160	      1.04127310	      4.46357310	      0.03217164	      1.37767180	      0.21895623	     56.22651046	     -6.34611537	      3.79490322	     82.13628168	      1.43354855	     -1.86044372	      0.00000000	      0.00000000	     66.28516842	     -0.97419040	      0.85306803	     61.69244687	      1.07673632	     12.22762331	      0.00000000	      0.00000000
    120.11555600	    -19.37451496	      0.47100093	      3.65647599	      0.03225146	      1.37794078	      0.21964835	     57.66909256	     -5.36137318	      3.97135740	     84.97657181	      1.48312097	     -1.97838329	      0.00000000	      0.00000000	     64.19853844	     -1.96343924	      0.76974473	     57.99877190	      1.01226953	     10.93544144	      0.00000000	      0.00000000
    120.12444400	    -19.31656223	     -0.22351737	      2.82333283	      0.03226511	      1.37811573	      0.22037292	     59.20306802	     -4.27610855	      4.00806837	     87.67512221	      1.53021955	     -2.06809661	      0.00000000	      0.00000000	     62.21643551	     -3.08724484	      0.61628901	     54.40088079	      0.94947449	      9.30693450	      0.00000000	      0.00000000
    120.13333300	    -19.33043036	     -0.67931761	      2.02041493	      0.03231187	      1.37829957	      0.22102816	     60.85650902	     -3.39770800	      4.17395926	     90.28380043	      1.57574958	     -2.14810480	      0.00000000	      0.00000000	     60.22283173	     -4.04881128	      0.15614013	     50.79627994	      0.88656233	      7.59320298	      0.00000000	      0.00000000
    120.14222200	    -19.43032849	     -1.32786058	      1.21722063	      0.03230315	      1.37838901	      0.22174298	     62.57690271	     -2.39282620	      4.12496342	     92.70852207	      1.61806895	     -2.15339286	      0.00000000	      0.00000000	     58.39965523	     -5.15676357	     -0.29807273	     47.34627261	      0.82634835	      5.49563808	      0.00000000	      0.00000000
    120.15111100	    -19.59877763	     -2.00032125	      0.42002977	      0.03230719	      1.37845096	      0.22236901	     64.35845129	     -1.40178976	      3.99242655	     94.96324178	      1.65742124	     -2.08044542	      0.00000000	      0.00000000	     56.68367692	     -6.27894465	     -0.84615382	     44.05443134	      0.76889488	      3.27821976	      0.00000000	      0.00000000
    120.16000000	    -19.81887737	     -2.30297099	     -0.32408030	      0.03231241	      1.37847418	      0.22288476	     66.24679302	     -0.70446115	      4.09865335	     97.13546910	      1.69533376	     -1.97717674	      0.00000000	      0.00000000	     54.96688261	     -7.08538419	     -1.71079503	     40.80977437	      0.71226493	      0.89383541	      0.00000000	      0.00000000
    120.16888900	    -20.08072972	     -2.77379601	     -1.04928581	      0.03234447	      1.37846618	      0.22332835	     68.11958644	      0.06523650	      3.99013939	     99.09494480	      1.72953306	     -1.73791631	      0.00000000	      0.00000000	     53.40925976	     -7.98267258	     -2.48578487	     37.84253623	      0.66047685	     -1.53684628	      0.00000000	      0.00000000
